<svg version="1.1" xmlns="http://www.w3.org/2000/svg" viewBox="0 0 357.4202691095197 151.7059903002082"
     width="714.8405382190394" height="303.4119806004164">
    <!-- svg-source:excalidraw -->

    <defs>
        <style class="style-fonts">
            @font-face {
            font-family: "Virgil";
            src: url("https://excalidraw.com/Virgil.woff2");
            }
            @font-face {
            font-family: "Cascadia";
            src: url("https://excalidraw.com/Cascadia.woff2");
            }
            @font-face {
            font-family: "Assistant";
            src: url("https://excalidraw.com/Assistant-Regular.woff2");
            }
        </style>

    </defs>
    <g stroke-linecap="round"
       transform="translate(10 10.000000000000114) rotate(0 168.7101345547601 65.85299515010405)">
        <path d="M196.48 0.89 C214.05 1.01, 231.93 4.31, 247.84 7.56 C263.76 10.81, 279.45 15.23, 291.97 20.36 C304.48 25.5, 315.39 31.56, 322.93 38.36 C330.48 45.16, 335.52 53.96, 337.25 61.19 C338.98 68.41, 337.91 74.96, 333.3 81.69 C328.69 88.43, 319.84 95.52, 309.59 101.59 C299.33 107.66, 285.95 113.77, 271.78 118.11 C257.62 122.45, 241.82 125.27, 224.57 127.63 C207.32 130, 186.64 132.31, 168.28 132.3 C149.93 132.28, 131.45 129.83, 114.43 127.52 C97.4 125.21, 80.61 122.82, 66.14 118.46 C51.68 114.09, 37.87 107.45, 27.64 101.34 C17.4 95.24, 9.26 88.69, 4.73 81.81 C0.21 74.93, -1.06 67.18, 0.49 60.07 C2.04 52.96, 6.67 45.49, 14.03 39.13 C21.39 32.76, 32.15 27.19, 44.62 21.89 C57.1 16.6, 72.78 10.72, 88.88 7.38 C104.98 4.05, 121.32 2.74, 141.25 1.88 C161.17 1.01, 195.36 1.74, 208.43 2.21 C221.51 2.67, 220.39 3.82, 219.71 4.66 M124.21 1.36 C140.41 -1.04, 160.47 0.61, 178.73 1.29 C196.99 1.96, 216.86 2.95, 233.79 5.42 C250.72 7.89, 266.76 11.37, 280.32 16.08 C293.89 20.8, 306.09 27.62, 315.18 33.71 C324.27 39.8, 331.3 45.51, 334.84 52.62 C338.37 59.73, 338.88 69.2, 336.38 76.36 C333.89 83.51, 328.27 89.55, 319.86 95.55 C311.45 101.55, 299.11 107.57, 285.91 112.36 C272.71 117.14, 257.14 121.25, 240.65 124.28 C224.15 127.32, 205.05 129.46, 186.91 130.58 C168.78 131.69, 149.52 132.25, 131.83 130.99 C114.15 129.72, 96.28 127.09, 80.8 122.99 C65.31 118.89, 50.55 112, 38.92 106.4 C27.29 100.8, 17.47 96.13, 11.04 89.41 C4.62 82.7, 0.75 73.28, 0.37 66.09 C-0.02 58.9, 3.36 52.79, 8.72 46.27 C14.09 39.75, 21.9 32.97, 32.56 26.96 C43.23 20.95, 57.34 14.45, 72.68 10.22 C88.02 5.99, 115.83 2.53, 124.6 1.59 C133.37 0.64, 124.61 3.45, 125.32 4.56"
              stroke="#ff75f0" stroke-width="2" fill="none"></path>
    </g>
</svg>
